<?xml version="1.0" encoding="UTF-8" standalone="no"?>
<!-- Generator: Adobe Illustrator 18.1.0, SVG Export Plug-In . SVG Version: 6.00 Build 0)  -->

<svg
   version="1.1"
   id="レイヤー_1"
   x="0px"
   y="0px"
   viewBox="0 0 397.8 535.6"
   enable-background="new 0 0 397.8 535.6"
   xml:space="preserve"
   sodipodi:docname="open-go-knocking.svg"
   inkscape:version="1.1.2 (0a00cf5339, 2022-02-04)"
   inkscape:export-filename="/home/leviathan/development/go/open-go-knocking/assets/open-go-knocking"
   inkscape:export-xdpi="128"
   inkscape:export-ydpi="128"
   xmlns:inkscape="http://www.inkscape.org/namespaces/inkscape"
   xmlns:sodipodi="http://sodipodi.sourceforge.net/DTD/sodipodi-0.dtd"
   xmlns="http://www.w3.org/2000/svg"
   xmlns:svg="http://www.w3.org/2000/svg"><defs
   id="defs390" /><sodipodi:namedview
   id="namedview388"
   pagecolor="#ffffff"
   bordercolor="#666666"
   borderopacity="1.0"
   inkscape:pageshadow="2"
   inkscape:pageopacity="0.0"
   inkscape:pagecheckerboard="0"
   showgrid="false"
   inkscape:zoom="1.5571322"
   inkscape:cx="198.76283"
   inkscape:cy="224.12998"
   inkscape:window-width="1920"
   inkscape:window-height="1043"
   inkscape:window-x="0"
   inkscape:window-y="0"
   inkscape:window-maximized="1"
   inkscape:current-layer="レイヤー_1" />
<g
   id="g385">
	<path
   fill="#E0DEDC"
   d="M68.5,64c0,0-45.3-8-56.4,40.2c-11.7,50.6,27,46.7,27,46.7L68.5,64z"
   id="path351" />
	<g
   id="g357">
		<path
   fill="#040000"
   stroke="#040000"
   stroke-width="1.3483"
   stroke-miterlimit="10"
   d="M23.9,86.2c-8.5-0.3-15.5,25.8-13.1,35.2    c0.9,3.5,10,6.3,14-3.7C27.7,110.4,34.5,86.5,23.9,86.2z"
   id="path353" />
		<path
   fill="#FFFFFF"
   d="M17.6,94c-1.9-0.6-4,4.5-4.7,6.3c-1.8,5.3,2.1,5.1,4.4,2C18.5,100.7,19.5,94.7,17.6,94z"
   id="path355" />
	</g>
	<path
   fill="#B8937F"
   d="M46.3,487.8c5.2,7.3,41.6,6.4,46.1-1.3c4.2-7.1-21.4-14.9-30.7-16.1C47.6,468.6,42.6,482.5,46.3,487.8z"
   id="path359" />
	<path
   fill="#B8937F"
   d="M351,446c5.2,7.3,29.4,3.7,34-4c4.2-7.1-9.3-12.2-18.6-13.4C352.3,426.8,347.3,440.7,351,446z"
   id="path361" />
	<path
   fill="#8CC5E7"
   d="M189.6,13.4c0,0-182.1-8.9-161,217.6c6.3,68-43.8,182.8,29.2,239.8c0,0,102.1,61.7,238.9,41.5   c20-3,45.5-10,63.2-57.1c22.3-59.5,6.6-121.5-13.2-165.5c-22.3-49.7-21.2-105.8-19.6-115.3C354.3,14.2,189.6,13.4,189.6,13.4z"
   id="path363" />
	<path
   fill="#8CC5E7"
   d="M282.3,38.8c19.2-5,32.6-10.5,43.4-5c30.5,15.7-4.9,45.4-12.4,51C302.3,93.2,268.4,42.4,282.3,38.8z"
   id="path365" />
	<path
   fill="#3C89BF"
   d="M306,40.5c-18.8,4.2-19.6,13.7-14.8,16.4c2.8,1.6,0.8-8.1,13.6-3.8c5.2,1.7-2.5,14.3,12.1,0.2   C324.7,45.6,310.1,39.6,306,40.5z"
   id="path367" />
	<path
   fill="#E0DEDC"
   d="M137.9,29.2c-22.9,1.7-76.1,28.5-50,94.2c9.1,23,104.6,10.3,105.8-54C194.1,42.6,158.1,27.7,137.9,29.2z"
   id="path369" />
	<path
   fill="#040000"
   stroke="#040000"
   stroke-width="1.3483"
   stroke-miterlimit="10"
   d="M109.9,51.8C88.5,53.7,83.3,84,91.3,91.1   c4.5,4,20.1,8.6,28.5-19C122.5,63.3,117.8,51,109.9,51.8z"
   id="path371" />
	<path
   fill="#FFFFFF"
   d="M101.7,57.4c-3.1-0.9-8.8,7-7.1,10.3c0.6,1.2,3.2,2.9,5.3,1.3C102.2,67.2,107.8,59.1,101.7,57.4z"
   id="path373" />
	<path
   fill="#B8937F"
   d="M74.6,130.1C34.9,122.3,30,165,43.9,172.3c10.1,5.4,38.8-3.5,43.6-13.4C92.2,148.9,95,134.1,74.6,130.1z"
   id="path375" />
	<path
   fill="#040000"
   d="M48,126.4c-12.5,4.3-11.8,25.4-5.1,26c7.6,0.7,21-14.7,24.2-20.9C69.5,126.9,53,124.7,48,126.4z"
   id="path377" />
	<path
   fill="#E0DEDC"
   d="M52.5,169.9c-3.2,1.4-2.9,18.8,3.3,21.5c19.6,8.3,20.9-20.4,17.1-24.9C70,162.9,54.7,168.9,52.5,169.9z"
   id="path379" />
	<path
   fill="#B8937F"
   d="M272,269.2c-11.2,0.5-19.7,23.3-16.9,34.3c1.5,5.9,12.9,5,11.3,9.6c-2.7,7.6,17.4,12.9,21.2,4.7   C306.9,277,282.3,268.8,272,269.2z"
   id="path381" />
	<path
   fill="#B8937F"
   d="M251.8,497.4c-39.7-4.3-51.7,14.7-44.4,21.8c7.7,7.5,38.1,5.3,54.7,3.9   C268.7,522.6,261.8,498.5,251.8,497.4z"
   id="path383" />
</g>
<rect
   style="fill:none;stroke:#000000;stroke-width:7.55906"
   id="rect414"
   width="400.06262"
   height="537.49152"
   x="-0.75447166"
   y="0.24078883"
   ry="0" /><path
   id="rect1275"
   style="fill:#1a1a1a;stroke:#000000;stroke-width:7.55906;fill-opacity:1"
   d="M 85.704816,-36.696218 399.30814,0.24078883 V 541.01508 L 87.197706,591.8456 Z"
   sodipodi:nodetypes="ccccc"
   inkscape:export-filename="/home/leviathan/development/go/open-go-knocking/assets/open-go-knocking.png"
   inkscape:export-xdpi="128"
   inkscape:export-ydpi="128" /><ellipse
   style="fill:#000000;fill-opacity:1;stroke:#000000;stroke-width:7.55906"
   id="path12148"
   cx="127.27222"
   cy="270.00256"
   rx="10.295369"
   ry="10.280317" /></svg>
